# xmcd
#
# Track frame offsets:
# 150
# 13358
# 30339
# 44649
# 56338
# 70614
# 86782
# 98643
# 113020
# 126953
# 142482
# 159560
# 172981
# 192073
# 211050
# 223826
# 237802
# 257219
# 273906
# 289269
# 309647
#
# Disc length: 4295 seconds
#
#
# Revision: 0
# Processed by: cddbd v1.5.2PL0 Copyright (c) Steve Scherf et al.
# Submitted via: FreeRIP 2.951 
#
DISCID=3610c515
DTITLE=Lelles and Leonardo - Ao vivo
DYEAR=2008
DGENRE=Forro
TTITLE0=chupa q é de uva
TTITLE1=beber,cair e levantar
TTITLE2=não va embora
TTITLE3=tudo de bom
TTITLE4=trepadeira
TTITLE5=é por vc
TTITLE6=cama fria
TTITLE7=vou rifar meu coração
TTITLE8=beijo ta na moda
TTITLE9=choveu
TTITLE10=seu anjo
TTITLE11=fuscão preto
TTITLE12=promessa
TTITLE13=copo d'agua
TTITLE14=as andorinha
TTITLE15=fogueira de amor
TTITLE16=doze de junho
TTITLE17=macaco velho
TTITLE18=amor diferente
TTITLE19=pra la de bagda
TTITLE20=simbora beber
EXTD=jandsa@bol.com.br
EXTT0=
EXTT1=
EXTT2=
EXTT3=
EXTT4=
EXTT5=
EXTT6=
EXTT7=
EXTT8=
EXTT9=
EXTT10=
EXTT11=
EXTT12=
EXTT13=
EXTT14=
EXTT15=
EXTT16=
EXTT17=
EXTT18=
EXTT19=
EXTT20=
PLAYORDER=
